<?xml version="1.0" encoding="utf-8"?>
<!-- Generator: Adobe Illustrator 20.0.0, SVG Export Plug-In . SVG Version: 6.00 Build 0)  -->
<svg version="1.1" id="Layer_1" xmlns="http://www.w3.org/2000/svg" xmlns:xlink="http://www.w3.org/1999/xlink" x="0px" y="0px"
	 viewBox="0 0 149.8 25" style="enable-background:new 0 0 149.8 25;" xml:space="preserve">
<style type="text/css">
	.st0{fill:#A3ACB2;}
	.st1{fill:#39ACFF;}
</style>
<g>
	<path class="st0" d="M6.8,8.2c0.9,0,1.6,0.2,2.1,0.6c0.5,0.4,0.7,1,0.7,1.7c0,0.3-0.1,0.7-0.2,0.9S9,12,8.8,12.2
		c-0.2,0.2-0.5,0.4-0.9,0.5c-0.3,0.1-0.7,0.2-1.1,0.2H5.3V16H4.8V8.2H6.8z M6.8,12.4c0.3,0,0.6,0,0.9-0.1C8,12.2,8.2,12,8.4,11.9
		c0.2-0.2,0.3-0.4,0.4-0.6C8.9,11.1,9,10.8,9,10.5c0-0.6-0.2-1.1-0.5-1.4C8.1,8.8,7.5,8.7,6.8,8.7H5.3v3.8H6.8z"/>
	<path class="st0" d="M18,12.1c0,0.6-0.1,1.1-0.3,1.6S17.3,14.7,17,15c-0.3,0.3-0.7,0.6-1.2,0.8c-0.5,0.2-1,0.3-1.5,0.3
		c-0.6,0-1.1-0.1-1.5-0.3c-0.5-0.2-0.8-0.5-1.2-0.8c-0.3-0.3-0.6-0.8-0.8-1.3s-0.3-1-0.3-1.6c0-0.6,0.1-1.1,0.3-1.6
		c0.2-0.5,0.4-0.9,0.8-1.3c0.3-0.3,0.7-0.6,1.2-0.8c0.5-0.2,1-0.3,1.5-0.3c0.5,0,1.1,0.1,1.5,0.3c0.5,0.2,0.8,0.5,1.2,0.8
		c0.3,0.3,0.6,0.8,0.8,1.3C17.9,11,18,11.5,18,12.1z M17.4,12.1c0-0.5-0.1-1-0.2-1.5c-0.2-0.4-0.4-0.8-0.6-1.1
		c-0.3-0.3-0.6-0.5-1-0.7c-0.4-0.2-0.8-0.2-1.3-0.2c-0.5,0-0.9,0.1-1.3,0.2c-0.4,0.2-0.7,0.4-1,0.7s-0.5,0.7-0.6,1.1
		c-0.2,0.4-0.2,0.9-0.2,1.5c0,0.5,0.1,1,0.2,1.5c0.2,0.4,0.4,0.8,0.6,1.1s0.6,0.5,1,0.7c0.4,0.2,0.8,0.2,1.3,0.2
		c0.5,0,0.9-0.1,1.3-0.2c0.4-0.2,0.7-0.4,1-0.7c0.3-0.3,0.5-0.7,0.6-1.1C17.4,13.1,17.4,12.7,17.4,12.1z"/>
	<path class="st0" d="M29.5,8.2L27.1,16h-0.5l-2.3-6.8c0-0.1-0.1-0.2-0.1-0.3c0,0.1,0,0.2-0.1,0.3L21.8,16h-0.5l-2.5-7.8h0.5
		c0.1,0,0.2,0,0.2,0.1l2,6.4c0,0.1,0.1,0.3,0.1,0.5c0-0.1,0-0.2,0.1-0.3c0-0.1,0-0.2,0.1-0.2l2.2-6.4c0,0,0-0.1,0.1-0.1s0.1,0,0.1,0
		h0.2c0.1,0,0.1,0,0.1,0s0.1,0.1,0.1,0.1l2.2,6.4c0,0.1,0,0.1,0.1,0.2c0,0.1,0,0.2,0.1,0.3c0-0.1,0-0.2,0.1-0.3c0-0.1,0-0.2,0.1-0.2
		l2-6.4c0,0,0-0.1,0.1-0.1s0.1,0,0.1,0H29.5z"/>
	<path class="st0" d="M35.6,15.5l0,0.5H31V8.2h4.7v0.5h-4.1v3.1h3.4v0.5h-3.4v3.2H35.6z"/>
	<path class="st0" d="M42.7,16h-0.5c-0.1,0-0.1,0-0.2,0s-0.1-0.1-0.1-0.1l-2.5-3.2c0,0-0.1-0.1-0.1-0.1s-0.1-0.1-0.1-0.1
		c0,0-0.1,0-0.1,0c-0.1,0-0.1,0-0.2,0h-1V16h-0.6V8.2h2c0.9,0,1.6,0.2,2,0.5c0.4,0.3,0.7,0.9,0.7,1.5c0,0.3-0.1,0.6-0.2,0.8
		c-0.1,0.2-0.2,0.5-0.4,0.6c-0.2,0.2-0.4,0.3-0.7,0.5c-0.3,0.1-0.6,0.2-0.9,0.2c0.1,0.1,0.2,0.1,0.2,0.2L42.7,16z M39.3,12.1
		c0.3,0,0.7,0,0.9-0.1c0.3-0.1,0.5-0.2,0.7-0.4c0.2-0.2,0.3-0.3,0.4-0.6c0.1-0.2,0.1-0.5,0.1-0.7c0-0.6-0.2-1-0.5-1.2
		S40,8.7,39.3,8.7h-1.4v3.4H39.3z"/>
	<path class="st0" d="M48.7,15.5l0,0.5H44V8.2h4.7v0.5h-4.1v3.1H48v0.5h-3.4v3.2H48.7z"/>
	<path class="st0" d="M56.9,12.1c0,0.6-0.1,1.1-0.3,1.6s-0.4,0.9-0.8,1.2s-0.7,0.6-1.2,0.8c-0.5,0.2-1,0.3-1.5,0.3h-2.8V8.2h2.8
		c0.5,0,1.1,0.1,1.5,0.3c0.5,0.2,0.8,0.4,1.2,0.8c0.3,0.3,0.6,0.7,0.8,1.2S56.9,11.5,56.9,12.1z M56.4,12.1c0-0.5-0.1-1-0.2-1.5
		c-0.2-0.4-0.4-0.8-0.6-1.1c-0.3-0.3-0.6-0.5-1-0.7c-0.4-0.2-0.8-0.2-1.3-0.2H51v6.9h2.3c0.5,0,0.9-0.1,1.3-0.2
		c0.4-0.2,0.7-0.4,1-0.7c0.3-0.3,0.5-0.7,0.6-1.1C56.3,13.1,56.4,12.7,56.4,12.1z"/>
	<path class="st0" d="M64,8.2c0.4,0,0.8,0,1.2,0.1c0.3,0.1,0.6,0.2,0.8,0.4s0.4,0.4,0.5,0.6c0.1,0.2,0.2,0.5,0.2,0.8
		c0,0.2,0,0.4-0.1,0.6c-0.1,0.2-0.2,0.4-0.3,0.5s-0.3,0.3-0.5,0.4S65.2,12,65,12c0.6,0.1,1.1,0.3,1.4,0.6s0.5,0.7,0.5,1.3
		c0,0.3-0.1,0.6-0.2,0.9c-0.1,0.3-0.3,0.5-0.5,0.7s-0.5,0.3-0.8,0.4C65,16,64.7,16,64.3,16h-2.5V8.2H64z M62.3,8.7v3.2H64
		c0.4,0,0.7,0,0.9-0.1s0.5-0.2,0.6-0.4s0.3-0.3,0.4-0.5s0.1-0.4,0.1-0.6c0-0.5-0.2-0.9-0.5-1.2c-0.3-0.3-0.8-0.4-1.5-0.4H62.3z
		 M64.3,15.6c0.7,0,1.2-0.1,1.5-0.4c0.3-0.3,0.5-0.7,0.5-1.2c0-0.2,0-0.5-0.1-0.7c-0.1-0.2-0.2-0.4-0.4-0.5s-0.4-0.2-0.6-0.3
		c-0.3-0.1-0.5-0.1-0.9-0.1h-2v3.3H64.3z"/>
	<path class="st0" d="M70.9,12.8V16h-0.6v-3.2l-2.9-4.6h0.5c0.1,0,0.1,0,0.1,0c0,0,0.1,0.1,0.1,0.1l2.2,3.6c0,0.1,0.1,0.2,0.1,0.2
		c0,0.1,0.1,0.2,0.1,0.2c0-0.1,0.1-0.2,0.1-0.2s0.1-0.2,0.1-0.2L73,8.4c0,0,0-0.1,0.1-0.1s0.1,0,0.1,0h0.5L70.9,12.8z"/>
	<path class="st1" d="M83.1,8.3c0,0.1-0.1,0.1-0.1,0.2c0,0-0.1,0.1-0.2,0.1c-0.1,0-0.2,0-0.3-0.1s-0.2-0.1-0.4-0.2
		C82.1,8.1,81.9,8,81.7,8c-0.2-0.1-0.4-0.1-0.7-0.1c-0.3,0-0.5,0-0.7,0.1C80,8,79.9,8.1,79.7,8.3c-0.1,0.1-0.2,0.3-0.3,0.4
		c-0.1,0.2-0.1,0.3-0.1,0.5c0,0.2,0.1,0.5,0.2,0.6c0.1,0.2,0.3,0.3,0.5,0.4c0.2,0.1,0.4,0.2,0.7,0.3s0.5,0.2,0.8,0.3
		c0.3,0.1,0.5,0.2,0.8,0.3s0.5,0.3,0.7,0.4c0.2,0.2,0.4,0.4,0.5,0.7c0.1,0.3,0.2,0.6,0.2,1c0,0.4-0.1,0.8-0.2,1.1
		c-0.1,0.4-0.3,0.7-0.6,0.9s-0.6,0.5-1,0.6c-0.4,0.2-0.8,0.2-1.3,0.2c-0.3,0-0.6,0-0.9-0.1c-0.3-0.1-0.5-0.1-0.8-0.2
		c-0.2-0.1-0.5-0.2-0.7-0.4s-0.4-0.3-0.6-0.5l0.4-0.7c0-0.1,0.1-0.1,0.1-0.1c0.1,0,0.1-0.1,0.2-0.1c0.1,0,0.2,0,0.3,0.1
		c0.1,0.1,0.3,0.2,0.4,0.3c0.2,0.1,0.4,0.2,0.6,0.3c0.2,0.1,0.5,0.1,0.9,0.1c0.3,0,0.5,0,0.8-0.1c0.2-0.1,0.4-0.2,0.6-0.3
		c0.2-0.1,0.3-0.3,0.3-0.5c0.1-0.2,0.1-0.4,0.1-0.7c0-0.3-0.1-0.5-0.2-0.7s-0.3-0.3-0.5-0.4c-0.2-0.1-0.4-0.2-0.7-0.3
		c-0.3-0.1-0.5-0.2-0.8-0.3c-0.3-0.1-0.5-0.2-0.8-0.3c-0.3-0.1-0.5-0.3-0.7-0.4s-0.4-0.4-0.5-0.7c-0.1-0.3-0.2-0.6-0.2-1
		c0-0.3,0.1-0.6,0.2-1c0.1-0.3,0.3-0.6,0.6-0.8C79,7.3,79.3,7.1,79.7,7c0.4-0.1,0.8-0.2,1.2-0.2c0.5,0,1,0.1,1.4,0.2
		c0.4,0.2,0.8,0.4,1.1,0.7L83.1,8.3z"/>
	<path class="st1" d="M86.1,10.4c0.1-0.1,0.3-0.3,0.4-0.4c0.2-0.1,0.3-0.2,0.5-0.3s0.4-0.2,0.6-0.2c0.2,0,0.4-0.1,0.6-0.1
		c0.4,0,0.7,0.1,0.9,0.2s0.5,0.3,0.7,0.5c0.2,0.2,0.3,0.5,0.4,0.8c0.1,0.3,0.1,0.6,0.1,1V16h-1.2v-4.1c0-0.5-0.1-0.8-0.3-1.1
		c-0.2-0.3-0.5-0.4-1-0.4c-0.3,0-0.6,0.1-0.9,0.2c-0.3,0.2-0.5,0.4-0.8,0.6V16H85V9.5h0.7c0.2,0,0.3,0.1,0.3,0.2L86.1,10.4z"/>
	<path class="st1" d="M91.9,10.4c0.4-0.3,0.8-0.6,1.2-0.8s0.9-0.3,1.4-0.3c0.4,0,0.7,0.1,1,0.2c0.3,0.1,0.5,0.3,0.7,0.5
		c0.2,0.2,0.3,0.5,0.4,0.8s0.1,0.6,0.1,1V16h-0.6c-0.1,0-0.2,0-0.3-0.1c-0.1,0-0.1-0.1-0.2-0.2l-0.1-0.6c-0.2,0.2-0.3,0.3-0.5,0.4
		c-0.2,0.1-0.3,0.2-0.5,0.3c-0.2,0.1-0.4,0.1-0.6,0.2c-0.2,0-0.4,0.1-0.7,0.1c-0.3,0-0.5,0-0.7-0.1c-0.2-0.1-0.4-0.2-0.6-0.3
		c-0.2-0.1-0.3-0.3-0.4-0.5s-0.1-0.5-0.1-0.8c0-0.3,0.1-0.5,0.2-0.7c0.1-0.2,0.4-0.4,0.7-0.6c0.3-0.2,0.7-0.3,1.2-0.5
		c0.5-0.1,1.1-0.2,1.9-0.2v-0.5c0-0.5-0.1-0.9-0.3-1.1c-0.2-0.2-0.5-0.4-0.9-0.4c-0.3,0-0.5,0-0.7,0.1c-0.2,0.1-0.3,0.1-0.5,0.2
		s-0.2,0.2-0.4,0.2c-0.1,0.1-0.2,0.1-0.3,0.1c-0.1,0-0.2,0-0.2-0.1c-0.1,0-0.1-0.1-0.1-0.2L91.9,10.4z M95.6,13.1
		c-0.5,0-0.9,0.1-1.3,0.1s-0.6,0.1-0.9,0.2c-0.2,0.1-0.4,0.2-0.5,0.4c-0.1,0.1-0.1,0.3-0.1,0.5c0,0.2,0,0.3,0.1,0.4
		c0.1,0.1,0.1,0.2,0.2,0.3c0.1,0.1,0.2,0.1,0.3,0.2s0.3,0.1,0.4,0.1c0.2,0,0.4,0,0.5-0.1c0.2,0,0.3-0.1,0.4-0.2
		c0.1-0.1,0.3-0.2,0.4-0.3c0.1-0.1,0.3-0.2,0.4-0.4V13.1z"/>
	<path class="st1" d="M99.6,10.5c0.1-0.2,0.3-0.3,0.4-0.4s0.3-0.2,0.5-0.3c0.2-0.1,0.4-0.2,0.6-0.2c0.2-0.1,0.4-0.1,0.6-0.1
		c0.4,0,0.7,0.1,1,0.2c0.3,0.1,0.6,0.4,0.8,0.6c0.2,0.3,0.4,0.6,0.5,1c0.1,0.4,0.2,0.9,0.2,1.4c0,0.5-0.1,0.9-0.2,1.3
		c-0.1,0.4-0.3,0.8-0.6,1.1c-0.2,0.3-0.5,0.5-0.9,0.7c-0.3,0.2-0.7,0.3-1.2,0.3c-0.4,0-0.7-0.1-1-0.2c-0.3-0.1-0.5-0.3-0.7-0.5v2.8
		h-1.2V9.5h0.7c0.2,0,0.3,0.1,0.3,0.2L99.6,10.5z M99.7,14.4c0.2,0.3,0.4,0.5,0.7,0.6c0.2,0.1,0.5,0.2,0.8,0.2c0.6,0,1-0.2,1.3-0.6
		s0.5-1,0.5-1.8c0-0.4,0-0.8-0.1-1.1c-0.1-0.3-0.2-0.5-0.3-0.7c-0.1-0.2-0.3-0.3-0.5-0.4s-0.4-0.1-0.7-0.1c-0.4,0-0.7,0.1-0.9,0.2
		s-0.5,0.4-0.7,0.7V14.4z"/>
	<path class="st1" d="M111.4,14.9l0,1.1h-5.7V6.8h5.7V8h-4.3v2.9h3.5v1.1h-3.5v3H111.4z"/>
	<path class="st1" d="M113.8,10.4c0.1-0.1,0.3-0.3,0.4-0.4c0.2-0.1,0.3-0.2,0.5-0.3s0.4-0.2,0.6-0.2c0.2,0,0.4-0.1,0.6-0.1
		c0.4,0,0.7,0.1,0.9,0.2s0.5,0.3,0.7,0.5c0.2,0.2,0.3,0.5,0.4,0.8c0.1,0.3,0.1,0.6,0.1,1V16h-1.2v-4.1c0-0.5-0.1-0.8-0.3-1.1
		c-0.2-0.3-0.5-0.4-1-0.4c-0.3,0-0.6,0.1-0.9,0.2c-0.3,0.2-0.5,0.4-0.8,0.6V16h-1.2V9.5h0.7c0.2,0,0.3,0.1,0.3,0.2L113.8,10.4z"/>
	<path class="st1" d="M125.3,9.8v0.5c0,0.2-0.1,0.2-0.3,0.3l-0.7,0.1c0.1,0.1,0.1,0.3,0.1,0.4s0.1,0.3,0.1,0.5
		c0,0.3-0.1,0.6-0.2,0.9s-0.3,0.5-0.5,0.7c-0.2,0.2-0.5,0.3-0.8,0.4c-0.3,0.1-0.6,0.1-1,0.1c-0.3,0-0.6,0-0.8-0.1
		c-0.1,0.1-0.2,0.2-0.3,0.3c-0.1,0.1-0.1,0.2-0.1,0.3c0,0.1,0.1,0.3,0.2,0.3s0.3,0.1,0.5,0.2c0.2,0,0.4,0.1,0.7,0.1
		c0.3,0,0.5,0,0.8,0c0.3,0,0.5,0.1,0.8,0.1c0.3,0,0.5,0.1,0.7,0.2s0.4,0.3,0.5,0.4c0.1,0.2,0.2,0.4,0.2,0.7c0,0.3-0.1,0.6-0.2,0.8
		c-0.1,0.3-0.3,0.5-0.6,0.7s-0.6,0.4-1,0.5c-0.4,0.1-0.8,0.2-1.3,0.2c-0.5,0-0.9,0-1.3-0.1c-0.4-0.1-0.7-0.2-0.9-0.4
		c-0.2-0.2-0.4-0.3-0.5-0.5c-0.1-0.2-0.2-0.4-0.2-0.7c0-0.3,0.1-0.6,0.3-0.8c0.2-0.2,0.5-0.4,0.8-0.5c-0.2-0.1-0.3-0.2-0.4-0.3
		c-0.1-0.1-0.2-0.3-0.2-0.6c0-0.1,0-0.2,0.1-0.3c0-0.1,0.1-0.2,0.2-0.3c0.1-0.1,0.2-0.2,0.3-0.3c0.1-0.1,0.2-0.2,0.4-0.2
		c-0.3-0.2-0.6-0.4-0.8-0.7c-0.2-0.3-0.3-0.6-0.3-1c0-0.3,0.1-0.6,0.2-0.9c0.1-0.3,0.3-0.5,0.5-0.7c0.2-0.2,0.5-0.3,0.8-0.4
		s0.6-0.1,1-0.1c0.6,0,1,0.1,1.4,0.4H125.3z M124,16.3c0-0.2,0-0.3-0.1-0.4c-0.1-0.1-0.2-0.2-0.3-0.2c-0.1-0.1-0.3-0.1-0.5-0.1
		s-0.4,0-0.6-0.1s-0.4,0-0.7,0c-0.2,0-0.4,0-0.7-0.1c-0.2,0.1-0.4,0.2-0.5,0.4c-0.1,0.2-0.2,0.3-0.2,0.6c0,0.1,0,0.3,0.1,0.4
		c0.1,0.1,0.2,0.2,0.3,0.3c0.1,0.1,0.3,0.2,0.6,0.2c0.2,0,0.5,0.1,0.8,0.1c0.3,0,0.6,0,0.8-0.1c0.2-0.1,0.4-0.1,0.6-0.2
		c0.2-0.1,0.3-0.2,0.4-0.3S124,16.5,124,16.3z M122,12.8c0.2,0,0.4,0,0.6-0.1s0.3-0.1,0.4-0.3s0.2-0.2,0.3-0.4
		c0.1-0.2,0.1-0.3,0.1-0.5c0-0.4-0.1-0.7-0.3-0.9c-0.2-0.2-0.6-0.3-1-0.3c-0.4,0-0.8,0.1-1,0.3c-0.2,0.2-0.3,0.5-0.3,0.9
		c0,0.2,0,0.3,0.1,0.5c0.1,0.2,0.1,0.3,0.3,0.4s0.3,0.2,0.4,0.3S121.8,12.8,122,12.8z"/>
	<path class="st1" d="M126.3,10.4c0.4-0.3,0.8-0.6,1.2-0.8s0.9-0.3,1.4-0.3c0.4,0,0.7,0.1,1,0.2c0.3,0.1,0.5,0.3,0.7,0.5
		c0.2,0.2,0.3,0.5,0.4,0.8s0.1,0.6,0.1,1V16h-0.6c-0.1,0-0.2,0-0.3-0.1c-0.1,0-0.1-0.1-0.2-0.2l-0.1-0.6c-0.2,0.2-0.3,0.3-0.5,0.4
		c-0.2,0.1-0.3,0.2-0.5,0.3c-0.2,0.1-0.4,0.1-0.6,0.2c-0.2,0-0.4,0.1-0.7,0.1c-0.3,0-0.5,0-0.7-0.1c-0.2-0.1-0.4-0.2-0.6-0.3
		c-0.2-0.1-0.3-0.3-0.4-0.5s-0.1-0.5-0.1-0.8c0-0.3,0.1-0.5,0.2-0.7c0.1-0.2,0.4-0.4,0.7-0.6c0.3-0.2,0.7-0.3,1.2-0.5
		c0.5-0.1,1.1-0.2,1.9-0.2v-0.5c0-0.5-0.1-0.9-0.3-1.1c-0.2-0.2-0.5-0.4-0.9-0.4c-0.3,0-0.5,0-0.7,0.1c-0.2,0.1-0.3,0.1-0.5,0.2
		s-0.2,0.2-0.4,0.2c-0.1,0.1-0.2,0.1-0.3,0.1c-0.1,0-0.2,0-0.2-0.1c-0.1,0-0.1-0.1-0.1-0.2L126.3,10.4z M129.9,13.1
		c-0.5,0-0.9,0.1-1.3,0.1s-0.6,0.1-0.9,0.2c-0.2,0.1-0.4,0.2-0.5,0.4c-0.1,0.1-0.1,0.3-0.1,0.5c0,0.2,0,0.3,0.1,0.4
		c0.1,0.1,0.1,0.2,0.2,0.3c0.1,0.1,0.2,0.1,0.3,0.2s0.3,0.1,0.4,0.1c0.2,0,0.4,0,0.5-0.1c0.2,0,0.3-0.1,0.4-0.2
		c0.1-0.1,0.3-0.2,0.4-0.3c0.1-0.1,0.3-0.2,0.4-0.4V13.1z"/>
	<path class="st1" d="M138.3,9.8v0.5c0,0.2-0.1,0.2-0.3,0.3l-0.7,0.1c0.1,0.1,0.1,0.3,0.1,0.4s0.1,0.3,0.1,0.5
		c0,0.3-0.1,0.6-0.2,0.9s-0.3,0.5-0.5,0.7c-0.2,0.2-0.5,0.3-0.8,0.4c-0.3,0.1-0.6,0.1-1,0.1c-0.3,0-0.6,0-0.8-0.1
		c-0.1,0.1-0.2,0.2-0.3,0.3c-0.1,0.1-0.1,0.2-0.1,0.3c0,0.1,0.1,0.3,0.2,0.3s0.3,0.1,0.5,0.2c0.2,0,0.4,0.1,0.7,0.1
		c0.3,0,0.5,0,0.8,0c0.3,0,0.5,0.1,0.8,0.1c0.3,0,0.5,0.1,0.7,0.2s0.4,0.3,0.5,0.4c0.1,0.2,0.2,0.4,0.2,0.7c0,0.3-0.1,0.6-0.2,0.8
		c-0.1,0.3-0.3,0.5-0.6,0.7s-0.6,0.4-1,0.5c-0.4,0.1-0.8,0.2-1.3,0.2c-0.5,0-0.9,0-1.3-0.1c-0.4-0.1-0.7-0.2-0.9-0.4
		c-0.2-0.2-0.4-0.3-0.5-0.5c-0.1-0.2-0.2-0.4-0.2-0.7c0-0.3,0.1-0.6,0.3-0.8c0.2-0.2,0.5-0.4,0.8-0.5c-0.2-0.1-0.3-0.2-0.4-0.3
		c-0.1-0.1-0.2-0.3-0.2-0.6c0-0.1,0-0.2,0.1-0.3c0-0.1,0.1-0.2,0.2-0.3c0.1-0.1,0.2-0.2,0.3-0.3c0.1-0.1,0.2-0.2,0.4-0.2
		c-0.3-0.2-0.6-0.4-0.8-0.7c-0.2-0.3-0.3-0.6-0.3-1c0-0.3,0.1-0.6,0.2-0.9c0.1-0.3,0.3-0.5,0.5-0.7c0.2-0.2,0.5-0.3,0.8-0.4
		s0.6-0.1,1-0.1c0.6,0,1,0.1,1.4,0.4H138.3z M137,16.3c0-0.2,0-0.3-0.1-0.4c-0.1-0.1-0.2-0.2-0.3-0.2c-0.1-0.1-0.3-0.1-0.5-0.1
		s-0.4,0-0.6-0.1s-0.4,0-0.7,0c-0.2,0-0.4,0-0.7-0.1c-0.2,0.1-0.4,0.2-0.5,0.4c-0.1,0.2-0.2,0.3-0.2,0.6c0,0.1,0,0.3,0.1,0.4
		c0.1,0.1,0.2,0.2,0.3,0.3c0.1,0.1,0.3,0.2,0.6,0.2c0.2,0,0.5,0.1,0.8,0.1c0.3,0,0.6,0,0.8-0.1c0.2-0.1,0.4-0.1,0.6-0.2
		c0.2-0.1,0.3-0.2,0.4-0.3S137,16.5,137,16.3z M135.1,12.8c0.2,0,0.4,0,0.6-0.1s0.3-0.1,0.4-0.3s0.2-0.2,0.3-0.4
		c0.1-0.2,0.1-0.3,0.1-0.5c0-0.4-0.1-0.7-0.3-0.9c-0.2-0.2-0.6-0.3-1-0.3c-0.4,0-0.8,0.1-1,0.3c-0.2,0.2-0.3,0.5-0.3,0.9
		c0,0.2,0,0.3,0.1,0.5c0.1,0.2,0.1,0.3,0.3,0.4s0.3,0.2,0.4,0.3S134.8,12.8,135.1,12.8z"/>
	<path class="st1" d="M144.7,15.1c-0.2,0.2-0.3,0.3-0.5,0.5c-0.2,0.1-0.4,0.2-0.6,0.3S143,16,142.8,16c-0.2,0-0.5,0.1-0.7,0.1
		c-0.4,0-0.9-0.1-1.2-0.2c-0.4-0.2-0.7-0.4-1-0.7s-0.5-0.7-0.7-1.1s-0.2-0.9-0.2-1.5c0-0.5,0.1-0.9,0.2-1.3c0.1-0.4,0.3-0.7,0.6-1
		s0.6-0.5,1-0.7c0.4-0.2,0.8-0.2,1.3-0.2c0.4,0,0.8,0.1,1.1,0.2c0.3,0.1,0.6,0.3,0.9,0.6s0.4,0.6,0.6,0.9c0.1,0.4,0.2,0.8,0.2,1.2
		c0,0.2,0,0.3-0.1,0.4c0,0.1-0.1,0.1-0.2,0.1h-4.2c0,0.4,0.1,0.7,0.2,1c0.1,0.3,0.2,0.5,0.4,0.7c0.2,0.2,0.4,0.3,0.6,0.4
		c0.2,0.1,0.5,0.1,0.8,0.1c0.3,0,0.5,0,0.7-0.1c0.2-0.1,0.4-0.1,0.5-0.2s0.3-0.1,0.4-0.2c0.1-0.1,0.2-0.1,0.3-0.1
		c0.1,0,0.2,0,0.2,0.1L144.7,15.1z M143.6,12c0-0.2,0-0.5-0.1-0.7c-0.1-0.2-0.2-0.4-0.3-0.5c-0.1-0.2-0.3-0.3-0.5-0.4
		s-0.4-0.1-0.7-0.1c-0.5,0-0.9,0.2-1.2,0.5s-0.5,0.7-0.6,1.3H143.6z"/>
</g>
</svg>
